<?xml version="1.0" encoding="UTF-8"?>
<svg width="617px" height="349px" viewBox="0 0 617 349" version="1.1" xmlns="http://www.w3.org/2000/svg" xmlns:xlink="http://www.w3.org/1999/xlink">
    <title>AB7D1F21-0163-429C-87F3-FF18260B0C70@1x</title>
    <defs>
        <polygon id="path-1" points="0 0.253754593 251.179 0.253754593 251.179 250.999915 0 250.999915"></polygon>
    </defs>
    <g id="Error-404" stroke="none" stroke-width="1" fill="none" fill-rule="evenodd">
        <g transform="translate(-332.000000, -163.000000)" id="Group-2">
            <g transform="translate(332.000000, 163.000000)">
                <g id="Group" transform="translate(185.000000, 41.000000)">
                    <g id="Group-10">
                        <g id="Group-3" transform="translate(0.000000, 0.747000)">
                            <mask id="mask-2" fill="white">
                                <use xlink:href="#path-1"></use>
                            </mask>
                            <g id="Clip-2"></g>
                            <path d="M205.8,204.5349 C188.709,221.9099 168.137,232.7859 144.194,236.4889 C108.517,242.0069 76.722,233.0209 49.654,208.7519 C37.704,198.0369 28.658,185.1389 22.248,170.4269 C18.697,162.2769 14.91,154.2219 13.061,145.4209 C10.564,133.5379 9.575,121.6099 10.535,109.4669 C11.239,100.5629 12.348,91.7569 14.567,83.1119 C18.769,66.7369 26.034,51.9649 37.768,39.6109 C45.056,31.9379 53.698,26.0309 62.834,20.8059 C63.121,20.6419 63.585,20.7859 64.044,20.7859 C64.883,22.5189 63.449,24.1469 63.721,25.9159 C64.027,27.9059 65.516,29.2079 67.466,28.5439 C69.135,27.9759 70.709,27.1069 72.28,26.2849 C85.759,19.2399 100.07,14.7989 115.187,13.4009 C134.03,11.6589 152.37,14.2089 169.684,22.0229 C203.934,37.4809 226.22,63.3409 235.168,99.9499 C244.199,136.8979 232.74,177.1449 205.8,204.5349 M169.266,8.0149 C153.845,1.9149 137.664,-0.7371 120.992,0.5869 C112.289,1.2779 103.799,3.1179 95.422,5.5259 C94.292,5.8499 92.852,6.7099 92.059,6.3129 C88.896,4.7309 86.292,6.4119 83.602,7.3599 C64.396,14.1249 47.692,24.8379 33.993,39.9039 C5.633,71.0969 -5.323,107.7439 2.412,149.1189 C13.946,210.8059 68.001,251.2959 126.526,250.9499 C132.585,251.1849 139.693,250.5849 146.703,249.2949 C175.502,243.9959 200.179,230.9029 219.337,208.6809 C247.274,176.2749 257.386,138.7069 247.453,96.9629 C237.198,53.8669 210.405,24.2889 169.266,8.0149" id="Fill-1" fill="#FFFFFF" mask="url(#mask-2)"></path>
                        </g>
                        <path d="M102.6887,77.5612 C104.2247,78.3302 105.7397,78.1162 107.2227,77.3082 C108.6457,76.5342 109.7927,75.4822 110.6967,74.1442 C112.3797,71.6492 113.4917,68.8862 114.1227,65.9822 C114.5797,63.8772 115.0607,61.3822 112.8917,59.9892 C110.6527,58.5502 108.3017,59.6202 106.2057,60.8312 C105.5437,61.2122 104.9197,61.8152 104.5217,62.4642 C102.5367,65.7022 101.4117,69.2742 100.6767,72.4622 C100.4747,75.1002 101.1997,76.8162 102.6887,77.5612" id="Fill-6" fill="#FFFFFF"></path>
                        <path d="M136.1965,77.1168 C138.1965,77.0458 139.4725,75.9098 140.2095,74.1578 C141.1335,71.9578 141.4375,69.6208 141.5695,66.4258 C141.4785,65.8788 141.4155,64.4848 141.0055,63.2008 C139.7695,59.3308 135.3585,58.3898 132.6405,61.3638 C132.2485,61.7938 131.8865,62.2918 131.6525,62.8198 C129.6165,67.4058 131.0935,71.6448 133.1165,75.7558 C133.6595,76.8588 134.9575,77.1608 136.1965,77.1168" id="Fill-8" fill="#FFFFFF"></path>
                    </g>
                    <path d="M102,187.197177 C119.935039,171.138042 138.631543,167.572317 158.089512,176.5" id="Path-2" stroke="#FFFFFF" stroke-width="5" stroke-linecap="round" stroke-linejoin="round"></path>
                </g>
            </g>
        </g>
    </g>
</svg>
